<?xml version="1.0" encoding="utf-8"?>
<!-- Generator: Adobe Illustrator 24.0.1, SVG Export Plug-In . SVG Version: 6.00 Build 0)  -->
<svg version="1.1" id="Layer_1" xmlns="http://www.w3.org/2000/svg" xmlns:xlink="http://www.w3.org/1999/xlink" x="0px" y="0px"
	 viewBox="0 0 1920 550" style="enable-background:new 0 0 1920 550;" xml:space="preserve">
<style type="text/css">
	.st0{clip-path:url(#SVGID_2_);fill:url(#SVGID_3_);}
	.st1{clip-path:url(#SVGID_2_);}
	.st2{fill:#FFFFFF;}
</style>
<g>
	<defs>
		<path id="SVGID_1_" d="M1893,11.3V538.7c0,6.15-11.17,11.15-25.02,11.27c-0.24,0.03-0.44,0.03-0.64,0.03
			c-613.44,0-1226.89,0-1840.33,0c-9-0.33-18-0.67-27-1c0-3.43,0-6.87,0-10.3V11.3C0,5.06,11.51,0,25.67,0h1841.67
			C1881.49,0,1893,5.06,1893,11.3z"/>
	</defs>
	<clipPath id="SVGID_2_">
		<use xlink:href="#SVGID_1_"  style="overflow:visible;"/>
	</clipPath>
	<linearGradient id="SVGID_3_" gradientUnits="userSpaceOnUse" x1="397.1358" y1="819.85" x2="1277.6653" y2="-60.6795">
		<stop  offset="0" style="stop-color:#009887"/>
		<stop  offset="1" style="stop-color:#7FFFD0;stop-opacity:0"/>
	</linearGradient>
	<path class="st0" d="M54.02,216.87c0,0,160.07-123,456.91-88.76c31.31,3.61,60.14,10.35,83.92,19.77
		c96.94,38.41,128.99,93.34,210.34,114.63c91.69,23.99,221.88,23.07,266.58,59.45s-60.07,131.16,228.05,139.03
		c178.44,14.16,326.59,14.86,351.97,87.83C1501.18,551.61,0,548.6,0,548.6V233.38L54.02,216.87z"/>
	<g class="st1">
		<ellipse class="st2" cx="516.21" cy="246" rx="8.9" ry="6.32"/>
		<ellipse class="st2" cx="566.12" cy="272.23" rx="3.49" ry="2.48"/>
		<ellipse class="st2" cx="528.7" cy="232.95" rx="3.49" ry="2.48"/>
		<ellipse class="st2" cx="563.79" cy="259.13" rx="5.83" ry="4.14"/>
		<ellipse class="st2" cx="544.56" cy="255.72" rx="1.44" ry="1.02"/>
		<ellipse class="st2" cx="531.5" cy="260.83" rx="3.88" ry="2.76"/>
		<ellipse class="st2" cx="344.65" cy="525.76" rx="6.44" ry="4.57"/>
		<ellipse class="st2" cx="241" cy="320.98" rx="3.92" ry="2.78"/>
		<ellipse class="st2" cx="129.05" cy="156.78" rx="3.92" ry="2.78"/>
		<ellipse class="st2" cx="82.14" cy="161.55" rx="3.92" ry="2.78"/>
		<ellipse class="st2" cx="460.91" cy="548.15" rx="2.6" ry="1.85"/>
		<ellipse class="st2" cx="399.34" cy="538.2" rx="4.12" ry="2.93"/>
		<ellipse class="st2" cx="241" cy="347.28" rx="7.2" ry="5.11"/>
		<ellipse class="st2" cx="117.94" cy="166.67" rx="7.2" ry="5.11"/>
		<ellipse class="st2" cx="206.93" cy="324.42" rx="2.15" ry="1.52"/>
		<ellipse class="st2" cx="218.53" cy="301.28" rx="2.15" ry="1.52"/>
		<ellipse class="st2" cx="182.45" cy="331.08" rx="2.15" ry="1.52"/>
	</g>
	<g class="st1">
		<ellipse class="st2" cx="1102.21" cy="241" rx="8.9" ry="6.32"/>
		<ellipse class="st2" cx="1152.12" cy="267.23" rx="3.49" ry="2.48"/>
		<ellipse class="st2" cx="1114.7" cy="227.95" rx="3.49" ry="2.48"/>
		<ellipse class="st2" cx="1149.79" cy="254.13" rx="5.83" ry="4.14"/>
		<ellipse class="st2" cx="1130.56" cy="250.72" rx="1.44" ry="1.02"/>
		<ellipse class="st2" cx="1117.5" cy="255.83" rx="3.88" ry="2.76"/>
		<ellipse class="st2" cx="930.65" cy="520.76" rx="6.44" ry="4.57"/>
		<ellipse class="st2" cx="827" cy="315.98" rx="3.92" ry="2.78"/>
		<ellipse class="st2" cx="715.05" cy="151.78" rx="3.92" ry="2.78"/>
		<ellipse class="st2" cx="668.14" cy="156.55" rx="3.92" ry="2.78"/>
		<ellipse class="st2" cx="1046.91" cy="543.15" rx="2.6" ry="1.85"/>
		<ellipse class="st2" cx="985.34" cy="533.2" rx="4.12" ry="2.93"/>
		<ellipse class="st2" cx="827" cy="342.28" rx="7.2" ry="5.11"/>
		<ellipse class="st2" cx="703.94" cy="161.67" rx="7.2" ry="5.11"/>
		<ellipse class="st2" cx="792.93" cy="319.42" rx="2.15" ry="1.52"/>
		<ellipse class="st2" cx="804.53" cy="296.28" rx="2.15" ry="1.52"/>
		<ellipse class="st2" cx="768.45" cy="326.08" rx="2.15" ry="1.52"/>
	</g>
</g>
</svg>
