<?xml version="1.0" encoding="utf-8"?>
<!-- Generator: Adobe Illustrator 24.0.1, SVG Export Plug-In . SVG Version: 6.00 Build 0)  -->
<svg version="1.1" id="Layer_1" xmlns="http://www.w3.org/2000/svg" xmlns:xlink="http://www.w3.org/1999/xlink" x="0px" y="0px"
	 viewBox="0 0 841.9 595.3" style="enable-background:new 0 0 841.9 595.3;" xml:space="preserve">
<style type="text/css">
	.st0{fill:#FFFFFF;}
	.st1{fill:#FFEDC1;}
</style>
<title>Untitled-3</title>
<path class="st0" d="M809.2,39.5v496.8c0,5.8-4.6,10.5-10.4,10.7c-0.1,0-0.2,0-0.3,0h-763c-5.9,0-10.6-4.8-10.6-10.7V39.5
	c0-5.9,4.7-10.6,10.6-10.6h763C804.4,28.8,809.2,33.6,809.2,39.5C809.2,39.5,809.2,39.5,809.2,39.5z"/>
<path class="st1" d="M849,599.1c-1.3,0.6-2.7,0.9-4.1,0.9c-0.1,0-0.2,0-0.3,0H5.7C-0.8,600-6,594.5-6,587.6V12.3C-6,5.5-0.8,0,5.7,0
	h141.1c1.2,6.2,2.7,12.3,4.3,18.5c8.5,32,22.8,62,42.3,88.2c20.3,27.1,46.3,49,75.9,64c31.7,16.2,66.4,25.1,101.1,31
	c38.2,6.5,76.8,9.4,115.2,13.1c68.9,6.6,138.7,16.4,200.4,51.5c26.5,15.1,51.1,34.5,70.5,58.8c21.4,26.7,34.5,58.1,42.1,92
	C811.9,477.1,811.3,548.9,849,599.1z"/>
</svg>
