<svg id="Layer_1" data-name="Layer 1" xmlns="http://www.w3.org/2000/svg" viewBox="0 0 841.89 595.28"><defs><style>.cls-1{fill:#ffe4a9;}.cls-2{fill:#f79236;}.cls-3{fill:#f2682c;}.cls-4{fill:#fed4a1;}.cls-5{fill:#faa759;}.cls-6{fill:#20b7ba;}.cls-7{fill:#66c8ca;}.cls-8{fill:#f05223;}.cls-9{fill:#363954;}.cls-10{fill:#e3e3e3;}.cls-11{fill:#fff;}</style></defs><title>Untitled-2</title><ellipse class="cls-1" cx="392.08" cy="441.73" rx="231.84" ry="106.34"/><path class="cls-2" d="M639.53,113.87a34.08,34.08,0,0,1-14.07-2.58c-1.86-.79-3.74-1.75-5.75-1.76-3.31,0-6,2.4-8.43,4.66q-16.71,16-33.41,31.94l-.3.13c-.12-.34-.27-.65-.42-1-1.41-3-2.88-6-4.46-9-1-2-2.12-3.94-3.26-5.87l.37-.2c6.75-6,13.61-12.08,21.75-16a55,55,0,0,0,6.9-3.48c5.3-3.44,8.74-9.51,14.53-12.06,3.47-1.53,7.37-1.58,11.09-2.35A29.94,29.94,0,0,0,634.43,92c1.25-.82,3.42-1.44,3.82,0a2.05,2.05,0,0,1,0,1,22.17,22.17,0,0,1-4,8.74,10.48,10.48,0,0,0-2.15,3.56,3.33,3.33,0,0,0-.1,1.14C632.29,110.08,638.05,110.53,639.53,113.87Z"/><path class="cls-2" d="M518.55,115.4a7.92,7.92,0,0,1,.47-1.53c.72-1.61,2.45-3.1,4.11-2.51a3.5,3.5,0,0,1,1.92,3.23c.08,1.33-.24,2.67-.12,4a2.85,2.85,0,0,0,1,2.18,2.65,2.65,0,0,0,3-.28,15.89,15.89,0,0,0,2.22-2.27,9.36,9.36,0,0,1,6.27-2.77c2.67-.08,5.39,1,8,.36s4.59-2.91,7.21-3.46c2-.4,4,.23,6.08.39a6.31,6.31,0,0,0,1.15,0c-.75,5.1-2.68,10-4.59,14.84-1,2.41-1.92,4.83-2.89,7.25a3.67,3.67,0,0,1-.2.47c-1.46,3.72-3,7.51-5.79,10.4s-7.33,4.92-11.28,3.56a8.66,8.66,0,0,1-2.58-1.41,25.69,25.69,0,0,1-11.83-3,1,1,0,0,1-.47-.39,1,1,0,0,1,0-.6c.3-1.85.81-3.68,1.28-5.51a28.85,28.85,0,0,0,1.24-8.71,25.55,25.55,0,0,1-.3-3.91,3,3,0,0,0-.27-1.47,3.15,3.15,0,0,0-.91-.91A8.37,8.37,0,0,1,518.55,115.4Z"/><path class="cls-2" d="M476,334.9c8.74,3.84,18.61,5,28.24,5.94q-5.36,11.27-11.58,22.13c-1.56,2.72-3.22,5.49-5.77,7.32A12.87,12.87,0,0,1,476.11,372a16.59,16.59,0,0,1-8.86-6.68,72.06,72.06,0,0,1-3.94-7.49,104.34,104.34,0,0,0-5.91-9.26l1-.56a28.45,28.45,0,0,1,4.36-7.45,28.88,28.88,0,0,1,9.33-7.6C473.39,333.65,474.7,334.31,476,334.9Z"/><path class="cls-2" d="M538.27,258.53c-11.16-1.35-22.27-5.09-31-12.2,1.27-.49,2.53-1.11,3.81-1.63a37.51,37.51,0,0,1,19.23-2.49c5.59.78,10.89,2.81,16.39,4a1.2,1.2,0,0,0,.24,0c7,1.46,14.2,1.54,21.35,1.84a29.29,29.29,0,0,1,4,.42l0,.41a79.63,79.63,0,0,0,.57,8.62C561.41,258.89,549.77,259.9,538.27,258.53Z"/><path class="cls-3" d="M346.58,179.74A26.87,26.87,0,0,1,322.25,218a26.87,26.87,0,0,1-5.82-53.11,26,26,0,0,1,5.82-.65,26.88,26.88,0,0,1,24.33,15.48Z"/><path class="cls-4" d="M472.79,136.41c-1,18.16.32,37-6.22,54a16.24,16.24,0,0,1-3.55,5.92,7,7,0,0,1-2.66,1.63,11.86,11.86,0,0,1-5.24.15c-15.12-2-29.4-7.8-43.78-12.88l-2.7-1c-4.11-1.44-8.36-2.8-12.71-2.8h-.28c-2.17,0-4.38.4-6.46-.22-4-1.19-6.65-5.84-10.81-5.77-2.13.05-4,1.34-6,2.15a12.85,12.85,0,0,1-8.08.47,23.56,23.56,0,0,1,13.25-6.75c-4.51-.85-9-1.69-13.51-2.57-.35-.05-.72-.13-1.07-.21l0,.11c-3.41,2.44-6.8,4.89-10.21,7.34a32.31,32.31,0,0,1-6.19,3.79,26.07,26.07,0,0,0-4.87-7.13,26.41,26.41,0,0,0-7.41-5.49c3.82-3.71,7.68-7.35,11.81-10.69,7.75-6.31,16.71-11.9,21.25-20.81,1.81-3.56,2.81-7.47,4.73-11,5-9,15.07-13.74,22.48-20.92-.05.1-.1.22-.15.33a22,22,0,0,0-1.12,5.42,78.55,78.55,0,0,1-2.48,10.34c-1.43,5-2.82,10-2.59,15.14a29.83,29.83,0,0,0,.86,5.72l-.17,0a131.67,131.67,0,0,1-16.29,18.75,52.38,52.38,0,0,1,7.38,1.84,76.61,76.61,0,0,1,10.49,5.15s0,0,0,0c1.14.64,2.28,1.24,3.44,1.8a34.42,34.42,0,0,0,5.81,2.3,49.7,49.7,0,0,0,10.38,1.49c.94.07,1.88.12,2.82.17q18.6,1.2,37.27,1.29a83.78,83.78,0,0,1-1-24.53l-.16,0c-2.66-5.17-2.76-11.23-2.37-17a59.71,59.71,0,0,1,2.57-14.66c.15-.47.32-.93.5-1.38a30,30,0,0,1,5.86-9.83h0c7.66,3.53,14.74,9.59,16.73,17.74C473.36,127.92,473,132.2,472.79,136.41Z"/><path class="cls-4" d="M395.45,327.65A115.57,115.57,0,0,1,390,343c-5.29,12.92-10.27,26.16-11.85,40a7.23,7.23,0,0,0-3.17-1.35,25.21,25.21,0,0,0-6.12-.52h-.14a5.32,5.32,0,0,0-3.94,1.4A4.55,4.55,0,0,0,364,384c2.61-14.25,2.33-28.83,2.82-43.31s1.84-29.39,7.55-42.78c1.54-3.6,3.39-7.08,4.8-10.74a60.74,60.74,0,0,0,3.18-11.91c0-.2.07-.4.09-.59,1.24-7.7,1.34-15.67,1.42-23.49l-.06-.24c.8-.21,1.64-.35,2.46-.48a58.9,58.9,0,0,1,13.66-.34c1.55.14,3.06.34,4.57.59a24.5,24.5,0,0,1,10.45,3.86c.34.25.67.52,1,.8l-.2.24a127.45,127.45,0,0,1-5.32,18.69c-.05.05-.12.09-.18.14v.35c-.05.17-.1.34-.17.52-4.2,11.68-9.18,23.16-11.53,35.34C397.39,316.29,396.87,322.06,395.45,327.65Z"/><path class="cls-4" d="M427,306.33a29.64,29.64,0,0,1-.61,20.48,63,63,0,0,1-4,7.72c-4.5,7.65-8.88,15.44-12,23.72-.57,1.5-1.09,3-1.55,4.5a8.65,8.65,0,0,1-1.59,3.43,6.35,6.35,0,0,1-3.36,1.67,15.75,15.75,0,0,1-1.69.32,17,17,0,0,1-4.5.09,5.39,5.39,0,0,1-3.26-1.21,4.29,4.29,0,0,1-1.07-3.59,13.91,13.91,0,0,1,1.17-3.69c1.63-3.88,3-7.82,4.28-11.82,4-13.1,6.23-26.8,8.21-40.44.23-1.58.45-3.16.69-4.72l.57-.1c4.92,1,9.82,1.93,14.73,2.89a39.26,39.26,0,0,0,4,.65Z"/><path class="cls-4" d="M404.19,86.84a6.39,6.39,0,0,1-.76-5.24,5.4,5.4,0,0,1,.71-1.42,4.94,4.94,0,0,1,5.34-1.88v0c1.52,1.07,3.76.5,5.1-.81a11,11,0,0,0,2.51-5,16.25,16.25,0,0,1,2.09-5.17c2.11-2.88,5.94-3.77,9.48-4.26,3.35-.45,6.93-.8,9.61-2.82,5.12,10.25,5.81,22.3,3.88,33.6-.09.52-.17,1-.27,1.54a20.13,20.13,0,0,1-.7,2.64l.2.06c.28,2.12-.69,4.18-1.66,6.08-3,5.84-6.38,11.74-11.06,16.22a28.45,28.45,0,0,1-4.23,3.43,13.93,13.93,0,0,1-6.75,2.55,7.23,7.23,0,0,1-6.39-2.75,11,11,0,0,1-1.51-4.69,124.9,124.9,0,0,1-1.5-21.94c.06-2.35.17-4.72.34-7.07l0-.05A8,8,0,0,1,404.19,86.84Z"/><path class="cls-3" d="M399.9,250.1a59,59,0,0,0-13.67.34c-.81.13-1.65.27-2.46.48a8.76,8.76,0,0,0-4.81,2.69c-1.91,2.32-1.83,5.68-1.3,8.65a36.3,36.3,0,0,0,4.75,12.39,3.88,3.88,0,0,1-.09.58,73.3,73.3,0,0,1-8-10.78,15.08,15.08,0,0,1-2.61-6.83,12.58,12.58,0,0,1,2.27-7.23c1.36-2.16,3.06-4.1,4.45-6.26,3-4.69,4.54-10.23,5.39-15.75s1.07-11.13,1.85-16.67c.48-3.53,1.24-7.16,3.3-10.06a13,13,0,0,1,6.16-4.64,12.42,12.42,0,0,0,3.27,4.52c11.25,10.89,27.13,16.33,42.78,16.49a42.91,42.91,0,0,0,15.35-2.25,6.29,6.29,0,0,0,2.43-1.44,3.79,3.79,0,0,0,.62-.88,8.54,8.54,0,0,0,.67-1.83.84.84,0,0,0,0-.12l.32.08a22,22,0,0,1,3.33,13.2A48.29,48.29,0,0,1,461,238.26c-4,11.57-9.72,22.49-13.37,34.17-1.41,4.5-2.54,9.17-5,13.21-1.9,3.14-4.6,6-5.31,9.56-.48,2.42,0,5.05-1.12,7.24a7.54,7.54,0,0,1-5.92,3.77,13.58,13.58,0,0,1-3.25,0c-1.33-.12-2.66-.39-4-.64l-14.74-2.9a22.1,22.1,0,0,0,5.94-1.75,9.74,9.74,0,0,0,5.5-6.29c.31-1.39.22-2.95,1.07-4.09a5.54,5.54,0,0,1,2.89-1.71c3.16-1.09,6.45-1.94,9.34-3.63s5.41-4.4,5.89-7.72c.32-2.24-.3-4.52-.19-6.79.2-3.69,2.37-7,4.82-9.73s5.27-5.24,7.27-8.33a7,7,0,0,0,1.41-4.91c-.42-2.33-2.63-3.82-4.22-5.56-2-2.18-3.23-5-4.93-7.41s-4.21-4.67-7.19-4.67c-3.72,0-6.61,3.52-7.51,7.15s-.37,7.43-.51,11.15a31.69,31.69,0,0,1-17.68,26.8c0-.14,0-.28,0-.42l.17-.5a19.17,19.17,0,0,0,7.09-8.29c1.08-2.38,1.63-5.18.66-7.61a8.35,8.35,0,0,0-2.22-3,12.65,12.65,0,0,0-1-.81c-3-2.21-6.76-3.23-10.45-3.87C403,250.43,401.44,250.23,399.9,250.1Z"/><path class="cls-5" d="M413,172.24q18.61,1.2,37.28,1.28a83.08,83.08,0,0,1-1-24.53h-.17c-2.66-5.16-2.76-11.23-2.37-17a59.23,59.23,0,0,1,2.56-14.67c.15-.47.32-.92.51-1.38a14.3,14.3,0,0,1,9.21,7.37A25.46,25.46,0,0,1,461.55,136c-.09,4.38-.84,8.71-1.27,13.09a94,94,0,0,0-.16,16.44c.44,5.6,1.2,11.91-2.41,16.22-2.64,3.14-7,4.33-11.13,4.13s-8-1.58-11.95-2.78a133.66,133.66,0,0,0-14.25-3.42c-4.65-.83-9.36-1.43-13.8-3-6-2.18-11.13-6.11-16.06-10.2,1.14.63,2.3,1.24,3.45,1.8a34.94,34.94,0,0,0,5.81,2.3,49.69,49.69,0,0,0,10.39,1.49Z"/><path class="cls-6" d="M460.36,197.91a7,7,0,0,0,2.66-1.62,78.55,78.55,0,0,1-2.74,15.21.84.84,0,0,1,0,.12,8.54,8.54,0,0,1-.67,1.83l-.1-.07c-.47-4.8-5-8.36-9.65-9.56s-9.59-.61-14.42-.47a77.55,77.55,0,0,1-11.09-.5,21.53,21.53,0,0,1-7-1.75,12.85,12.85,0,0,1-6.14-15.56l.12-.37c14.39,5.1,28.67,10.9,43.79,12.89A11.72,11.72,0,0,0,460.36,197.91Z"/><path class="cls-7" d="M395.12,197a6.46,6.46,0,0,1-.33-1.57,13.54,13.54,0,0,1,.68-4.13,25.1,25.1,0,0,0,.46-9.38v-.53c4.35,0,8.6,1.36,12.7,2.81l2.7,1-.12.37a12.85,12.85,0,0,0,6.14,15.56,21.53,21.53,0,0,0,7,1.75,77.55,77.55,0,0,0,11.09.5c4.83-.14,9.75-.74,14.42.47s9.18,4.76,9.65,9.56l.1.07a3.79,3.79,0,0,1-.62.88,6.29,6.29,0,0,1-2.43,1.44A42.91,42.91,0,0,1,441.17,218c-15.65-.16-31.53-5.6-42.78-16.49A12.42,12.42,0,0,1,395.12,197Z"/><path class="cls-6" d="M449.75,115.92c-.19.46-.36.91-.51,1.38A59.23,59.23,0,0,0,446.68,132c-.39,5.78-.29,11.85,2.37,17h.17a83.08,83.08,0,0,0,1,24.53q-18.66-.08-37.28-1.28a10.32,10.32,0,0,0,2.07-8.87c-1.21-5.08-6.09-8.6-7.49-13.63a10.92,10.92,0,0,1,1.18-8.55,16.75,16.75,0,0,1,7.09-5.86c2.78-1.4,5.73-2.45,8.42-4a12.54,12.54,0,0,0,4.37-3.87,6.33,6.33,0,0,0,.8-5.62,5.63,5.63,0,0,0-.76-1.35c4.68-4.48,8-10.38,11-16.22,1-1.9,2-4,1.66-6.08l-.19-.07a23.68,23.68,0,0,0,.7-2.63l5.75,3.15a49.33,49.33,0,0,1,9.34,6.09c-.47.44-.92.9-1.37,1.37A30.06,30.06,0,0,0,449.75,115.92Z"/><path class="cls-8" d="M452.26,247.74a7,7,0,0,1-1.41,4.91c-2,3.09-4.83,5.56-7.27,8.33s-4.62,6-4.82,9.73c-.11,2.27.51,4.55.19,6.79-.48,3.32-3,6-5.89,7.72s-6.18,2.54-9.34,3.63a5.54,5.54,0,0,0-2.89,1.71c-.85,1.14-.76,2.7-1.07,4.09a9.74,9.74,0,0,1-5.5,6.29,22.1,22.1,0,0,1-5.94,1.75l-.55-.11a3.66,3.66,0,0,1-1.59-.57c-1.45-1.05-.84-3.28-.17-4.94a58.32,58.32,0,0,0,4.21-21.87,31.69,31.69,0,0,0,17.68-26.8c.14-3.72-.38-7.53.51-11.15s3.79-7.16,7.51-7.15c3,0,5.5,2.23,7.19,4.67S446,240,448,242.18C449.63,243.92,451.84,245.41,452.26,247.74Z"/><path class="cls-5" d="M441.37,98.18c.29,2.11-.68,4.18-1.66,6.08-3,5.84-6.37,11.74-11,16.22a16.57,16.57,0,0,0-2.74-2.68,50.57,50.57,0,0,1-16.25-27.63,2.67,2.67,0,0,0,.47.07,7.74,7.74,0,0,1,2.2.37,6.21,6.21,0,0,1,2.43,2.61,25.32,25.32,0,0,0,15.11,10.64,10.51,10.51,0,0,0,6.92-.28,8.55,8.55,0,0,0,3.82-4.12,12,12,0,0,0,.56-1.35Z"/><path class="cls-9" d="M438.28,60.35c-2.69,2-6.27,2.35-9.62,2.81-3.54.48-7.38,1.38-9.48,4.26a16.16,16.16,0,0,0-2.09,5.17,10.9,10.9,0,0,1-2.51,5c-1.35,1.31-3.58,1.88-5.11.8v0a5,5,0,0,0-5.34,1.89,4.7,4.7,0,0,0-.7,1.42,6.71,6.71,0,0,1-4.1-4.7,13,13,0,0,1,.76-7.49c.87-2.4,2.06-4.67,2.82-7.1s1.14-5.28,2.82-7.3a11,11,0,0,1,6.15-3.18,49.17,49.17,0,0,0,6.86-1.59c3-1.14,5.76-3.4,8.92-3,2.18.29,3.95,1.83,5.59,3.32l5.63,5.09A3.66,3.66,0,0,1,440,57.11c.33,1.08-.43,2.18-1.29,2.91Z"/><path class="cls-7" d="M394.58,103.74a11.33,11.33,0,0,1,6.5-5.35,27.8,27.8,0,0,1,7.2-1.31,126,126,0,0,0,1.49,22,11,11,0,0,0,1.53,4.67,7.23,7.23,0,0,0,6.38,2.77,13.94,13.94,0,0,0,6.75-2.56,28.45,28.45,0,0,0,4.23-3.43,5.63,5.63,0,0,1,.76,1.35,6.33,6.33,0,0,1-.8,5.62,12.54,12.54,0,0,1-4.37,3.87c-2.69,1.56-5.64,2.61-8.42,4a16.75,16.75,0,0,0-7.09,5.86,10.92,10.92,0,0,0-1.18,8.55c1.4,5,6.28,8.55,7.49,13.63a10.32,10.32,0,0,1-2.07,8.87l-2.81-.17a49.69,49.69,0,0,1-10.39-1.49,34.94,34.94,0,0,1-5.81-2.3l.14-.28c1.47-5.46.11-11.28-1.65-16.65-1.16-3.54-2.52-7.06-3.37-10.66a29.83,29.83,0,0,1-.86-5.72c-.24-5.16,1.15-10.14,2.58-15.13a79.75,79.75,0,0,0,2.49-10.34,21.07,21.07,0,0,1,1.13-5.43C394.48,104,394.53,103.84,394.58,103.74Z"/><path class="cls-9" d="M418.13,258.38c1,2.43.42,5.23-.66,7.61a19.17,19.17,0,0,1-7.09,8.29,126.19,126.19,0,0,0,5.31-18.69l.22-.23A8.35,8.35,0,0,1,418.13,258.38Z"/><path class="cls-5" d="M398.85,347.94c4-13.09,6.24-26.79,8.21-40.43l.14,0a12.44,12.44,0,0,0,1.4,7.33c1.4,2.57,3.66,4.53,5.6,6.72s3.66,4.86,3.58,7.79c-.07,2.51-1.44,4.76-2.71,6.92A119.31,119.31,0,0,0,402.21,368l0,.21a17,17,0,0,1-4.51.09,5.37,5.37,0,0,1-3.24-1.22,4.26,4.26,0,0,1-1.08-3.58,13.58,13.58,0,0,1,1.18-3.69C396.2,355.89,397.61,352,398.85,347.94Z"/><path class="cls-5" d="M410.21,274.41v.37c-.07.16-.12.33-.18.5-4.2,11.69-9.18,23.17-11.53,35.35-1.11,5.65-1.63,11.43-3.05,17A116.83,116.83,0,0,1,390,343c-5.29,12.93-10.28,26.18-11.85,40.05a7.18,7.18,0,0,0-3.17-1.34,24.84,24.84,0,0,0-6.14-.53h-.14c0-23.59,14.82-45.36,15.69-69,.23-6-.43-12,.9-17.83,1.38-6,4.82-11.38,7.52-17a73.44,73.44,0,0,0,7.12-27.19c1.54.13,3.06.33,4.56.58,3.69.64,7.42,1.66,10.45,3.87a12.65,12.65,0,0,1,1,.81l-.22.23a126.19,126.19,0,0,1-5.31,18.69A1.09,1.09,0,0,1,410.21,274.41Z"/><path class="cls-9" d="M410.41,358.26a15.93,15.93,0,0,1,1,10.27,48,48,0,0,1-3.55,9.86q-2.46,5.55-4.94,11.09c-1.49,3.36-3,6.76-5.44,9.54-3.35,3.87-8.12,6.15-12.78,8.28A61.4,61.4,0,0,1,379.94,389a104.65,104.65,0,0,0,9.16-24.55c.8-3.37,1.46-6.82,3-9.93a12.6,12.6,0,0,1,6.76-6.54c-1.24,4-2.65,7.95-4.27,11.83a13.58,13.58,0,0,0-1.18,3.69,4.26,4.26,0,0,0,1.08,3.58,5.37,5.37,0,0,0,3.24,1.22,17,17,0,0,0,4.51-.09,16.19,16.19,0,0,0,1.69-.31,6.63,6.63,0,0,0,3.36-1.68,8.55,8.55,0,0,0,1.6-3.42C409.33,361.24,409.85,359.74,410.41,358.26Z"/><path class="cls-5" d="M389.09,140.69l-.16,0a132.93,132.93,0,0,1-16.3,18.75l-2.45-.44c-2.81-.5-5.82-1-8.44.16s-4.46,4.53-2.93,6.93c.89,1.4,2.54,2,4.2,2.37l0,.12c-3.41,2.44-6.8,4.89-10.21,7.34a33.15,33.15,0,0,1-6.19,3.79,26.48,26.48,0,0,0-4.86-7.13c1.54-1.37,3-2.81,4.49-4.29,3.1-3.16,6-6.52,9.21-9.54,2.51-2.35,5.23-4.47,7.85-6.7a133.22,133.22,0,0,0,27.54-32.24c-1.43,5-2.82,10-2.58,15.13A29.83,29.83,0,0,0,389.09,140.69Z"/><path class="cls-9" d="M368.67,381.14h.14a24.84,24.84,0,0,1,6.14.53,7.18,7.18,0,0,1,3.17,1.34,2.68,2.68,0,0,1,.3.28c1.28,1.36,1.36,3.4,1.48,5.25l0,.42a61.4,61.4,0,0,0,4.77,18.34c.58,1.45,1.2,2.9,1.82,4.33a7.93,7.93,0,0,1,1,3.49,4,4,0,0,1-.37,1.5c-3.3-3.21-7.74-5.91-12.29-5.14-2.72.46-5.07,2.1-7.45,3.5s-5.07,2.6-7.77,2.11a23.71,23.71,0,0,1-.39-7.09q.32-6.44,1.15-12.82a17.38,17.38,0,0,1,1.13-4.69c.73-2.52,1.45-5.05,2.18-7.56.09-.31.17-.61.28-.9a.2.2,0,0,1,0,0,4.78,4.78,0,0,1,.78-1.44A5.41,5.41,0,0,1,368.67,381.14Z"/><path class="cls-10" d="M387.11,416.62a5.79,5.79,0,0,1-2.32,2.51,13,13,0,0,1-4.77,1.44,54.49,54.49,0,0,1-16.67-.13,4.86,4.86,0,0,1-2.56-1,4.34,4.34,0,0,1-1.1-2.07c0-.1-.07-.22-.09-.32,2.7.49,5.4-.72,7.77-2.11s4.73-3,7.45-3.5C379.37,410.71,383.81,413.41,387.11,416.62Z"/><path class="cls-9" d="M383.77,250.92l.06.23c-.07,7.84-.18,15.79-1.42,23.5a36.3,36.3,0,0,1-4.75-12.39c-.53-3-.61-6.33,1.3-8.65A8.76,8.76,0,0,1,383.77,250.92Z"/><path class="cls-8" d="M330.87,212.48a25.61,25.61,0,0,0,10.19-2.14,26.88,26.88,0,1,1-24.63-45.43c-5.45,2.85-9.33,8.25-11.32,14.08s-2.27,12.47.08,18.21a24,24,0,0,0,10.42,11.6A30,30,0,0,0,330.87,212.48Z"/><path class="cls-5" d="M482.73,222.41l-27.24,33.13c-5.44,4.55-11.43,8.79-14.77,15-2.62,4.88-3.35,10.61-6.21,15.34-2.33,3.89-5.92,6.85-9.41,9.72-1.13.9-2.47,1.89-3.88,1.54,1.29-3.73,2.6-7.45,3.9-11.18-1.43-.53-3,.34-4.15,1.29a22.54,22.54,0,0,0-6.22,7.91c-1.13,2.36-1.85,5-3.44,7.1A8.4,8.4,0,0,1,409,304.4a5.12,5.12,0,0,1-4.48.58,1.62,1.62,0,0,1-1.16-2,12.41,12.41,0,0,1,2-5.52c-1.24.76-2.5,1.51-3.76,2.25-.71.42-1.81.74-2.2,0a1.62,1.62,0,0,1,.17-1.29c5.27-11.93,16-20.41,24.63-30.23,3.58-4,6.82-8.39,10.07-12.72q18.53-24.73,37-49.48c2.31,1.17,4.7,2.25,7.08,3.35,3,1.36,6,2.76,8.73,4.37C485.78,216.66,484.32,219.58,482.73,222.41Z"/><path class="cls-5" d="M476,334.9c8.74,3.84,18.61,5,28.24,5.94q-5.36,11.27-11.58,22.13c-1.56,2.72-3.22,5.49-5.77,7.32A12.87,12.87,0,0,1,476.11,372a16.59,16.59,0,0,1-8.86-6.68,72.06,72.06,0,0,1-3.94-7.49,104.34,104.34,0,0,0-5.91-9.26l1-.56a28.45,28.45,0,0,1,4.36-7.45,28.88,28.88,0,0,1,9.33-7.6C473.39,333.65,474.7,334.31,476,334.9Z"/><path class="cls-5" d="M518.55,115.4a7.92,7.92,0,0,1,.47-1.53c.72-1.61,2.45-3.1,4.11-2.51a3.5,3.5,0,0,1,1.92,3.23c.08,1.33-.24,2.67-.12,4a2.85,2.85,0,0,0,1,2.18,2.65,2.65,0,0,0,3-.28,15.89,15.89,0,0,0,2.22-2.27,9.36,9.36,0,0,1,6.27-2.77c2.67-.08,5.39,1,8,.36s4.59-2.91,7.21-3.46c2-.4,4,.23,6.08.39a6.31,6.31,0,0,0,1.15,0c-.75,5.1-2.68,10-4.59,14.84-1,2.41-1.92,4.83-2.89,7.25a3.67,3.67,0,0,1-.2.47c-1.46,3.72-3,7.51-5.79,10.4s-7.33,4.92-11.28,3.56a8.66,8.66,0,0,1-2.58-1.41,25.69,25.69,0,0,1-11.83-3,1,1,0,0,1-.47-.39,1,1,0,0,1,0-.6c.3-1.85.81-3.68,1.28-5.51a28.85,28.85,0,0,0,1.24-8.71,25.55,25.55,0,0,1-.3-3.91,3,3,0,0,0-.27-1.47,3.15,3.15,0,0,0-.91-.91A8.37,8.37,0,0,1,518.55,115.4Z"/><path class="cls-5" d="M538.27,258.53c-11.16-1.35-22.27-5.09-31-12.2,1.27-.49,2.53-1.11,3.81-1.63a37.51,37.51,0,0,1,19.23-2.49c5.59.78,10.89,2.81,16.39,4a1.2,1.2,0,0,0,.24,0c7,1.46,14.2,1.54,21.35,1.84a29.29,29.29,0,0,1,4,.42l0,.41a79.63,79.63,0,0,0,.57,8.62C561.41,258.89,549.77,259.9,538.27,258.53Z"/><path class="cls-5" d="M586.87,328.33q1.78,29.87,3.59,59.64l-.77,0-3.51-.85a49.66,49.66,0,0,0-6-1.21,21.41,21.41,0,0,0-3.39-.13,23.8,23.8,0,0,0-10.61,2.75,36.09,36.09,0,0,0-1.41-7.82q-4.77-18.52-10.4-36.84c-.29-.95-.57-1.89-.87-2.83-1-3.32-2.08-6.65-3.16-9.95,4.23-3.44,9.79-4.94,15.39-5.62a3.6,3.6,0,0,1,.55-.07c1.5-.17,3-.3,4.47-.39,5.4-.33,11.11-.28,16,2A6,6,0,0,1,586.87,328.33Z"/><path class="cls-5" d="M639.53,113.87a34.08,34.08,0,0,1-14.07-2.58c-1.86-.79-3.74-1.75-5.75-1.76-3.31,0-6,2.4-8.43,4.66l-33.41,31.94-.3.13c-.12-.34-.27-.65-.42-1-1.41-3-2.88-6-4.46-9-1-2-2.12-3.94-3.26-5.87l.37-.2c6.75-6,13.61-12.08,21.75-16a55,55,0,0,0,6.9-3.48c5.3-3.44,8.74-9.51,14.53-12.06,3.47-1.53,7.37-1.58,11.09-2.35A29.94,29.94,0,0,0,634.43,92c1.25-.82,3.42-1.44,3.82,0a2.05,2.05,0,0,1,0,1,22.17,22.17,0,0,1-4,8.74,10.48,10.48,0,0,0-2.15,3.56,3.33,3.33,0,0,0-.1,1.14C632.29,110.08,638.05,110.53,639.53,113.87Z"/><path class="cls-2" d="M590.46,388l-.77,0-3.51-.85a49.66,49.66,0,0,0-6-1.21,21.41,21.41,0,0,0-3.39-.13,23.8,23.8,0,0,0-10.61,2.75,36.09,36.09,0,0,0-1.41-7.82q-4.77-18.52-10.4-36.84c-.29-.95-.57-1.89-.87-2.83-1-3.32-2.08-6.65-3.16-9.95,4.23-3.44,9.79-4.94,15.39-5.62a3.6,3.6,0,0,1,.55-.07c1.5-.17,3-.3,4.47-.39,5.4-.33,11.11-.28,16,2a6,6,0,0,1,.2,1.27Q588.66,358.2,590.46,388Z"/><path class="cls-2" d="M577.88,146.13l-.31.13a9.32,9.32,0,0,0-.42-1q-2.1-4.58-4.46-9a52,52,0,0,0,14.76-11.57c2.27-2.55,4.31-5.34,7-7.37,4.08-3,9.29-4.07,13.8-6.44,3.4-1.8,6.38-4.35,10-5.8a17.92,17.92,0,0,1,13.81.24,3.1,3.1,0,0,0-.1,1.14c.33,3.64,6.09,4.09,7.56,7.44a34.16,34.16,0,0,1-14-2.59c-1.87-.78-3.75-1.75-5.76-1.76-3.3,0-6,2.39-8.42,4.66Z"/><path class="cls-5" d="M638.25,92a2.12,2.12,0,0,1,0,1,21.7,21.7,0,0,1-4,8.75,10.45,10.45,0,0,0-2.14,3.56,17.92,17.92,0,0,0-13.81-.24c-3.57,1.45-6.55,4-10,5.8-4.51,2.37-9.72,3.39-13.8,6.44-2.74,2-4.78,4.82-7,7.37a52,52,0,0,1-14.76,11.57q-1.56-3-3.25-5.87l.35-.2c6.75-6,13.62-12.08,21.76-16a57.8,57.8,0,0,0,6.9-3.47c5.31-3.45,8.74-9.52,14.53-12.07,3.47-1.53,7.37-1.59,11.08-2.35A29.53,29.53,0,0,0,634.43,92C635.68,91.16,637.85,90.54,638.25,92Z"/><path class="cls-5" d="M586.87,328.34q1.78,29.84,3.59,59.64l-.77,0-3.5-.85a49.62,49.62,0,0,0-6.06-1.22,22.51,22.51,0,0,0-3.39-.12c-1.74-6.6-4.21-13.05-4.35-19.83-.16-7.49,2.54-14.87,1.76-22.32-.7-6.65-4.14-12.68-7.9-18.24,1.49-.17,3-.29,4.45-.38,5.42-.33,11.12-.28,16,2A5.43,5.43,0,0,1,586.87,328.34Z"/><path class="cls-5" d="M547,246.22c7,1.46,14.19,1.53,21.34,1.84a26.22,26.22,0,0,1,4,.41l0,.41a79.81,79.81,0,0,0,.58,8.62c-11.5,1.39-23.14,2.4-34.64,1-11.16-1.34-22.26-5.09-31-12.19,1.28-.5,2.53-1.11,3.8-1.63a37.44,37.44,0,0,1,19.23-2.48c5.59.76,10.91,2.79,16.41,3.95Z"/><path class="cls-5" d="M532.5,147.84a19.73,19.73,0,0,1-4.58-5.43A36.35,36.35,0,0,1,523,131.18c-.11-.52-.21-1.05-.28-1.57a26.86,26.86,0,0,1-.31-3.9,3.1,3.1,0,0,0-.26-1.48,3.21,3.21,0,0,0-.9-.9,8.37,8.37,0,0,1-2.68-7.93,6.69,6.69,0,0,1,.48-1.52c.71-1.62,2.44-3.12,4.1-2.52a3.51,3.51,0,0,1,1.92,3.23c.08,1.33-.24,2.67-.12,4a2.89,2.89,0,0,0,1,2.19,2.72,2.72,0,0,0,3-.29,16.89,16.89,0,0,0,2.21-2.26,9.37,9.37,0,0,1,6.28-2.77c2.67-.08,5.37,1,8,.34s4.59-2.89,7.22-3.44c2-.42,4,.22,6.07.38a7.47,7.47,0,0,0,1.16,0c-.77,5.11-2.69,10-4.61,14.84-1,2.41-1.91,4.83-2.88,7.24a4,4,0,0,1-.2.48c-1.46,3.72-3,7.51-5.8,10.4s-7.33,4.92-11.27,3.56A9,9,0,0,1,532.5,147.84Z"/><path class="cls-2" d="M521.45,138.33a28.7,28.7,0,0,0,1.25-8.72c.07.52.17,1,.28,1.57a36.35,36.35,0,0,0,4.94,11.23,19.73,19.73,0,0,0,4.58,5.43,25.57,25.57,0,0,1-11.83-3,1.12,1.12,0,0,1-.47-.39,1.1,1.1,0,0,1,0-.6C520.49,142,521,140.16,521.45,138.33Z"/><path class="cls-5" d="M504.28,340.83q-5.36,11.3-11.59,22.14c-1.56,2.72-3.22,5.48-5.77,7.31a12.79,12.79,0,0,1-10.8,1.68,16.51,16.51,0,0,1-8.87-6.67,74,74,0,0,1-3.94-7.49,103.53,103.53,0,0,0-5.91-9.26l1-.56a28.48,28.48,0,0,1,4.37-7.45c.56,2.14,1.16,4.28,1.85,6.38.26.81.64,1.71,1.45,2,1.16.37,2.18-.85,2.82-1.91q3.55-6,7.12-12.06C484.77,338.73,494.64,339.92,504.28,340.83Z"/><path class="cls-2" d="M455.48,255.53c-5.43,4.55-11.43,8.81-14.76,15.06-2.61,4.88-3.36,10.61-6.21,15.35-2.33,3.88-5.91,6.83-9.42,9.71-1.12.91-2.46,1.89-3.87,1.55,1.29-3.73,2.6-7.46,3.89-11.19-1.42-.53-3,.34-4.14,1.3a22.44,22.44,0,0,0-6.23,7.9c-1.12,2.37-1.84,5-3.43,7.09a8.29,8.29,0,0,1-2.35,2.1l-.26-.4a43.44,43.44,0,0,1,14.1-21.42c2.9-2.39,6.17-4.43,8.55-7.34,3.4-4.14,4.68-9.57,7-14.4,4.8-10,13.87-17.13,22.13-24.55s16.22-16.1,17.91-27c3,1.36,5.95,2.75,8.72,4.37q-2,4.45-4.39,8.73Z"/><path class="cls-2" d="M468.91,347c-.64,1.06-1.66,2.28-2.82,1.91-.81-.25-1.19-1.15-1.45-2-.69-2.1-1.29-4.24-1.85-6.38a29,29,0,0,1,9.33-7.6c1.27.72,2.58,1.38,3.91,2Z"/><path class="cls-5" d="M471.3,206c2.31,1.16,4.69,2.24,7.09,3.35-1.69,10.87-9.73,19.61-17.91,27s-17.33,14.55-22.13,24.55c-2.32,4.83-3.6,10.26-7,14.4-2.38,2.91-5.65,4.95-8.55,7.34A43.44,43.44,0,0,0,408.7,304l.26.4a5.15,5.15,0,0,1-4.48.58,1.82,1.82,0,0,1-1.08-.89,2.08,2.08,0,0,1-.09-1.14,12.67,12.67,0,0,1,2-5.53l-3.75,2.26c-.71.41-1.82.73-2.2,0a1.56,1.56,0,0,1,.15-1.29c5.28-11.94,16-20.41,24.64-30.22,3.57-4.05,6.82-8.39,10.07-12.72Q452.79,230.71,471.3,206Z"/><path class="cls-5" d="M638.25,92a2.12,2.12,0,0,1,0,1,21.7,21.7,0,0,1-4,8.75,10.45,10.45,0,0,0-2.14,3.56,17.92,17.92,0,0,0-13.81-.24c-3.57,1.45-6.55,4-10,5.8-4.51,2.37-9.72,3.39-13.8,6.44-2.74,2-4.78,4.82-7,7.37a52,52,0,0,1-14.76,11.57q-1.56-3-3.25-5.87l.35-.2c6.75-6,13.62-12.08,21.76-16a57.8,57.8,0,0,0,6.9-3.47c5.31-3.45,8.74-9.52,14.53-12.07,3.47-1.53,7.37-1.59,11.08-2.35A29.53,29.53,0,0,0,634.43,92C635.68,91.16,637.85,90.54,638.25,92Z"/><path class="cls-10" d="M613.83,476.23c.46,3.77.27,8.27-2.85,10.42-1.83,1.25-4.19,1.33-6.4,1.38q-18.47.36-36.9.71c-1.5,0-3.23-.06-4.1-1.27a4.54,4.54,0,0,1-.52-3,1,1,0,0,1,0-.18h.27c8.87.62,18,.8,26.34-2.32,2.87-1.08,5.6-2.54,8.46-3.66a39,39,0,0,1,15.6-2.67C613.78,475.85,613.8,476,613.83,476.23Z"/><path class="cls-9" d="M586,455.34a15.29,15.29,0,0,1,1.77,1c2.21,2.45,2.93,6.12,5,8.8,3.85,5,11.07,5.31,17.21,6.77a5.19,5.19,0,0,1,2.91,1.43,4.63,4.63,0,0,1,.89,2.34,39,39,0,0,0-15.6,2.67c-2.86,1.12-5.59,2.58-8.46,3.66-8.33,3.12-17.47,2.94-26.34,2.32h-.27a140.8,140.8,0,0,1,4.12-26.85,2.5,2.5,0,0,0,.48,0,14.89,14.89,0,0,0,6.49-1.15c.63-.27,1.24-.57,1.85-.88a14.13,14.13,0,0,1,2.69-1.08A10.63,10.63,0,0,1,586,455.34Z"/><path class="cls-11" d="M591.09,398.72a122.35,122.35,0,0,1,.34,12.56,149.32,149.32,0,0,1-2.12,17.33q-2.07,13.29-3.36,26.73a10.63,10.63,0,0,0-7.25-1,14.13,14.13,0,0,0-2.69,1.08,92.61,92.61,0,0,1-1.12-27.85c1.31-11.84,4.92-23.68,3.2-35.47a51.76,51.76,0,0,0-1.35-6.29,22.51,22.51,0,0,1,3.39.12,49.62,49.62,0,0,1,6.06,1.22l3.5.85.77,0Z"/><path class="cls-5" d="M586.87,328.34q1.78,29.84,3.59,59.64l-.77,0-3.5-.85a49.62,49.62,0,0,0-6.06-1.22,22.51,22.51,0,0,0-3.39-.12c-1.74-6.6-4.21-13.05-4.35-19.83-.16-7.49,2.54-14.87,1.76-22.32-.7-6.65-4.14-12.68-7.9-18.24,1.49-.17,3-.29,4.45-.38,5.42-.33,11.12-.28,16,2A5.43,5.43,0,0,1,586.87,328.34Z"/><path class="cls-3" d="M504.28,340.83c-9.64-.91-19.51-2.1-28.25-5.93-1.33-.59-2.64-1.25-3.91-2-.73-.4-1.42-.82-2.12-1.26a40.46,40.46,0,0,0,5.27-8.52,66.78,66.78,0,0,0,4.63-14.37c1.78-8.21,2.61-16.59,4.51-24.77a35.67,35.67,0,0,1,3.68-10.1c1.92-3.26,4.66-6,6.83-9.07,4-5.72,6.07-12.77,10.66-17.92a13.06,13.06,0,0,0,1.73-.59c8.7,7.1,19.8,10.85,31,12.19,11.5,1.38,23.14.37,34.64-1,.08.6.15,1.18.23,1.76,3.18,23.09,14.65,45.14,15,68.58-.48-.28-1-.54-1.47-.78-4.85-2.28-10.55-2.33-16-2-1.46.09-3,.21-4.45.38l-.55-.8c.15-3.08,1.81-6,3.71-8.43,2.13-2.72,4.62-5.19,6.21-8.25a2.91,2.91,0,0,0,.37-2.38c-.42-1-1.7-1.27-2.79-1.35a19.55,19.55,0,0,1-6.1-1c-1.9-.78-3.62-2.48-3.67-4.55a8,8,0,0,1,.81-3.23,110.92,110.92,0,0,0,4-12.74c1.36-5.36,2.23-11.47-.88-16.05-3.22,7-6.79,14.29-13.34,18.25a26.17,26.17,0,0,0,2.31-9,11.91,11.91,0,0,0-2.94-8.67c-.65-.66-1.67-1.26-2.46-.78a2.32,2.32,0,0,0-.8,1.18c-3.5,8.68-5.74,17.81-8.8,26.65a83.56,83.56,0,0,1-7.31,16.15,48.23,48.23,0,0,1-6.18,8.21c-2.31,2.44-4.89,4.61-7.29,7A61.38,61.38,0,0,0,510.31,339a3.14,3.14,0,0,1-3.85,2.08C505.74,341,505,340.92,504.28,340.83Z"/><path class="cls-7" d="M505.75,201.25c-.66,1.6-1.29,3.2-1.87,4.83a55.25,55.25,0,0,1-3.51,8.78,15.09,15.09,0,0,1-4.9,5.46,32.79,32.79,0,0,0-8.36-6.63c-2.77-1.62-5.75-3-8.72-4.37-2.4-1.11-4.78-2.19-7.09-3.35a2.34,2.34,0,0,0-.27-.14c-.53-.27-1.12-.65-1.14-1.23a1.76,1.76,0,0,1,.31-.88l21.47-36.52c3.63-6.18,7.31-12.42,12.14-17.74s10.76-9.56,17.64-11.13c-.47,1.83-1,3.66-1.27,5.5a1.1,1.1,0,0,0,0,.6,1.12,1.12,0,0,0,.47.39,25.57,25.57,0,0,0,11.83,3,9,9,0,0,0,2.58,1.41c3.94,1.36,8.41-.54,11.27-3.56s4.34-6.68,5.8-10.4c5.08-2,10.14-4.07,15.23-6.11a1.49,1.49,0,0,1,1.07-.13,1.44,1.44,0,0,1,.62.67c.13.21.26.43.37.65q1.69,2.9,3.25,5.87,2.35,4.47,4.46,9a9.32,9.32,0,0,1,.42,1,3,3,0,0,1,.15,1.36,4.48,4.48,0,0,1-1.46,2.25,36.31,36.31,0,0,0-5.67,7.65,16,16,0,0,0-2.23,6.12c-.38,3.82,1.38,7.47,2.6,11.1A41.46,41.46,0,0,1,573,191c-.3,4-1.17,7.92-1.2,11.9,0,5.93,1.72,11.69,3.12,17.46a138.34,138.34,0,0,1,3.82,27.62,18.38,18.38,0,0,1-1.09,7.8h0a5.09,5.09,0,0,0-1.64-5.67,8.5,8.5,0,0,0-3.62-1.59,26.22,26.22,0,0,0-4-.41c-7.15-.31-14.34-.38-21.34-1.84l1.27-1.37c2.43-2.59,5-6,3.8-9.34-1-2.68-4.25-4.24-4.66-7.06s2.11-5.15,2.07-7.92c-.06-3.31-3.72-5.41-7-5.87s-6.79,0-9.83-1.39a2.75,2.75,0,0,1-1.44-1.17c-.64-1.25.37-2.67,1.32-3.69,3.68-3.93,7.55-7.69,11.57-11.27,2.34-2.1,5-4.81,4.24-7.86-.43-1.82-2-3.13-2.91-4.76-2.44-4.23-.38-9.55,1.83-13.92s4.58-9.41,2.64-13.91c-.29-.65-.75-1.34-1.46-1.43a2.44,2.44,0,0,0-1.68.72l-12.07,9.58a129,129,0,0,0-14.45,12.69A76.8,76.8,0,0,0,505.75,201.25Z"/><path class="cls-10" d="M578.09,392.12c1.72,11.79-1.89,23.63-3.2,35.47A92.61,92.61,0,0,0,576,455.44c-.61.31-1.22.61-1.85.88a14.89,14.89,0,0,1-6.49,1.15,225,225,0,0,0-2.53-42.6c-.65-4.16-1.4-8.34-1-12.52.4-4.47,2.07-8.8,2-13.28,0-.17,0-.34,0-.49a23.8,23.8,0,0,1,10.6-2.75A51.76,51.76,0,0,1,578.09,392.12Z"/><path class="cls-9" d="M572.91,257.5a79.81,79.81,0,0,1-.58-8.62l0-.41a8.5,8.5,0,0,1,3.62,1.59,5.09,5.09,0,0,1,1.64,5.67,3.1,3.1,0,0,1-1,1.26c-1.12.84-2.9,1.17-3.48,2.27C573.06,258.68,573,258.1,572.91,257.5Z"/><path class="cls-8" d="M565.7,324.64a6.31,6.31,0,0,0,0,.87c-5.62.69-11.16,2.19-15.39,5.63a18.41,18.41,0,0,0-1.79,1.65,3.53,3.53,0,0,0-1.16,2.2c0,1.16.92,2.08,1.82,2.83l4,3.36.33-.09c.3.93.58,1.88.88,2.83l-.44.13c-5-3-10.13-6.62-12.5-12a40.7,40.7,0,0,1-2-7.34,69.42,69.42,0,0,0-4.9-14.07l-.39-.24a83.56,83.56,0,0,0,7.31-16.15c3.06-8.84,5.3-18,8.8-26.65a2.32,2.32,0,0,1,.8-1.18c.79-.48,1.81.12,2.46.78a11.91,11.91,0,0,1,2.94,8.67,26.17,26.17,0,0,1-2.31,9c6.55-4,10.12-11.3,13.34-18.25,3.11,4.58,2.24,10.69.88,16.05a110.92,110.92,0,0,1-4,12.74,8,8,0,0,0-.81,3.23c.05,2.07,1.77,3.77,3.67,4.55a19.55,19.55,0,0,0,6.1,1c1.09.08,2.37.34,2.79,1.35a2.91,2.91,0,0,1-.37,2.38c-1.59,3.06-4.08,5.53-6.21,8.25C567.51,318.68,565.85,321.56,565.7,324.64Z"/><path class="cls-5" d="M547,246.22c7,1.46,14.19,1.53,21.34,1.84a26.22,26.22,0,0,1,4,.41l0,.41a79.81,79.81,0,0,0,.58,8.62c-11.5,1.39-23.14,2.4-34.64,1-11.16-1.34-22.26-5.09-31-12.19,1.28-.5,2.53-1.11,3.8-1.63a37.44,37.44,0,0,1,19.23-2.48c5.59.76,10.91,2.79,16.41,3.95Z"/><path class="cls-9" d="M559.84,112.73a7.47,7.47,0,0,1-1.16,0c-2-.16-4.09-.8-6.07-.38-2.63.55-4.61,2.8-7.22,3.44s-5.3-.42-8-.34a9.37,9.37,0,0,0-6.28,2.77,16.89,16.89,0,0,1-2.21,2.26,2.72,2.72,0,0,1-3,.29,2.89,2.89,0,0,1-1-2.19c-.12-1.31.2-2.65.12-4a3.51,3.51,0,0,0-1.92-3.23c-1.66-.6-3.39.9-4.1,2.52a6.69,6.69,0,0,0-.48,1.52l-.25-.06a7.88,7.88,0,0,1-2.39-7c.44-2.56,2.13-4.73,3.16-7.14,1.26-2.94,1.53-6.24,2.82-9.18a14.59,14.59,0,0,1,12-8.48,29.12,29.12,0,0,1,7.2.68l7.49,1.36c2.82.51,5.9,1.17,7.67,3.42,2.64,3.38,1,8.57,3.15,12.3.89,1.58,2.35,2.75,3.49,4.17s1.9,3.39,1.12,5S561.54,112.65,559.84,112.73Z"/><path class="cls-5" d="M532.5,147.84a19.73,19.73,0,0,1-4.58-5.43A36.35,36.35,0,0,1,523,131.18c-.11-.52-.21-1.05-.28-1.57a26.86,26.86,0,0,1-.31-3.9,3.1,3.1,0,0,0-.26-1.48,3.21,3.21,0,0,0-.9-.9,8.37,8.37,0,0,1-2.68-7.93,6.69,6.69,0,0,1,.48-1.52c.71-1.62,2.44-3.12,4.1-2.52a3.51,3.51,0,0,1,1.92,3.23c.08,1.33-.24,2.67-.12,4a2.89,2.89,0,0,0,1,2.19,2.72,2.72,0,0,0,3-.29,16.89,16.89,0,0,0,2.21-2.26,9.37,9.37,0,0,1,6.28-2.77c2.67-.08,5.37,1,8,.34s4.59-2.89,7.22-3.44c2-.42,4,.22,6.07.38a7.47,7.47,0,0,0,1.16,0c-.77,5.11-2.69,10-4.61,14.84-1,2.41-1.91,4.83-2.88,7.24a4,4,0,0,1-.2.48c-1.46,3.72-3,7.51-5.8,10.4s-7.33,4.92-11.27,3.56A9,9,0,0,1,532.5,147.84Z"/><path class="cls-9" d="M553.46,341.09l-.33.09-4-3.36c-.9-.75-1.86-1.67-1.82-2.83a3.53,3.53,0,0,1,1.16-2.2,18.41,18.41,0,0,1,1.79-1.65Q551.9,336.11,553.46,341.09Z"/><path class="cls-6" d="M506.66,245.79c-.38.37-.74.74-1.08,1.13a9.92,9.92,0,0,1-1.63.39,2.58,2.58,0,0,1-1.63-.14,2.74,2.74,0,0,1-1.05-2.36,20.48,20.48,0,0,1,2.39-10.92c1.64-3.06,4.09-5.77,4.83-9.17.89-4.2-1-8.41-2-12.59a30.66,30.66,0,0,1-.7-10.88,76.8,76.8,0,0,1,14.45-23,129,129,0,0,1,14.45-12.69L546.72,156a2.44,2.44,0,0,1,1.68-.72c.71.09,1.17.78,1.46,1.43,1.94,4.5-.44,9.56-2.64,13.91s-4.27,9.69-1.83,13.92c.94,1.63,2.48,2.94,2.91,4.76.73,3.05-1.9,5.76-4.24,7.86-4,3.58-7.89,7.34-11.57,11.27-1,1-2,2.44-1.32,3.69a2.75,2.75,0,0,0,1.44,1.17c3,1.39,6.54.94,9.83,1.39s7,2.56,7,5.87c0,2.77-2.47,5.18-2.07,7.92s3.66,4.38,4.66,7.06c1.24,3.32-1.37,6.75-3.8,9.34L547,246.22l-.23-.05c-5.5-1.16-10.82-3.19-16.41-3.95a37.44,37.44,0,0,0-19.23,2.48c-1.27.52-2.52,1.13-3.8,1.63A6.41,6.41,0,0,1,506.66,245.79Z"/><path class="cls-11" d="M554.29,445.87a29.74,29.74,0,0,1-29.75,29.75h-.22a29.75,29.75,0,1,1,30-29.75Z"/><path class="cls-10" d="M539.53,420.17a34.62,34.62,0,0,0-23.31,42.43,25.66,25.66,0,0,0,8.1,13,29.75,29.75,0,1,1,15.21-55.45Z"/><path class="cls-9" d="M495.47,220.32c.12.12.2.21.3.33a25.36,25.36,0,0,1-13,1.77q2.38-4.28,4.39-8.73A32.79,32.79,0,0,1,495.47,220.32Z"/><path class="cls-5" d="M504.28,340.83q-5.36,11.3-11.59,22.14c-1.56,2.72-3.22,5.48-5.77,7.31a12.79,12.79,0,0,1-10.8,1.68,16.51,16.51,0,0,1-8.87-6.67,74,74,0,0,1-3.94-7.49,103.53,103.53,0,0,0-5.91-9.26l1-.56a28.48,28.48,0,0,1,4.37-7.45c.56,2.14,1.16,4.28,1.85,6.38.26.81.64,1.71,1.45,2,1.16.37,2.18-.85,2.82-1.91q3.55-6,7.12-12.06C484.77,338.73,494.64,339.92,504.28,340.83Z"/><path class="cls-5" d="M471.3,206c2.31,1.16,4.69,2.24,7.09,3.35-1.69,10.87-9.73,19.61-17.91,27s-17.33,14.55-22.13,24.55c-2.32,4.83-3.6,10.26-7,14.4-2.38,2.91-5.65,4.95-8.55,7.34A43.44,43.44,0,0,0,408.7,304l.26.4a5.15,5.15,0,0,1-4.48.58,1.82,1.82,0,0,1-1.08-.89,2.08,2.08,0,0,1-.09-1.14,12.67,12.67,0,0,1,2-5.53l-3.75,2.26c-.71.41-1.82.73-2.2,0a1.56,1.56,0,0,1,.15-1.29c5.28-11.94,16-20.41,24.64-30.22,3.57-4.05,6.82-8.39,10.07-12.72Q452.79,230.71,471.3,206Z"/><path class="cls-10" d="M467.71,315.38c2.59,2.52,5.73,4.66,7.56,7.77a40.46,40.46,0,0,1-5.27,8.52c.7.44,1.39.86,2.12,1.26a29,29,0,0,0-9.33,7.6c-1.42-5.41-2.64-10.92-4.74-16.11-3-7.33-7.76-14.12-8.91-21.92q.64-.93,1.35-1.83a5.75,5.75,0,0,1,2.85-2.23,4.34,4.34,0,0,1,4,1.44,14.81,14.81,0,0,1,2.28,3.77c.34.68.68,1.37,1.05,2A38.78,38.78,0,0,0,467.71,315.38Z"/><path class="cls-9" d="M449.14,302.5A31.18,31.18,0,0,0,444,316.3a5.21,5.21,0,0,1,2.23,2.58c.24.48.46,1,.66,1.47a37.33,37.33,0,0,1-15.53,8.37c-1.73.47-3.9.67-5-.72a4.43,4.43,0,0,1-.78-2c-1.32-7.13,2.85-14.18,7.9-19.4s11.16-9.49,15.31-15.43a5.68,5.68,0,0,1,2-2c1.64-.78,3.51.33,4.94,1.42,2.38,1.8,4.75,3.8,6.1,6.48s1.39,6.2-.63,8.41l-.45.24c-.37-.67-.71-1.36-1.05-2a14.81,14.81,0,0,0-2.28-3.77,4.34,4.34,0,0,0-4-1.44,5.75,5.75,0,0,0-2.85,2.23Q449.79,301.57,449.14,302.5Z"/><path class="cls-11" d="M446.86,320.35c-.2-.49-.42-1-.66-1.47A5.21,5.21,0,0,0,444,316.3a31.18,31.18,0,0,1,5.17-13.8c1.15,7.8,5.93,14.59,8.91,21.92,2.1,5.19,3.32,10.7,4.74,16.11a28.48,28.48,0,0,0-4.37,7.45l-1,.56a48.64,48.64,0,0,1-4.24-7.38C450.21,334.53,449.7,327,446.86,320.35Z"/><path class="cls-2" d="M239.37,204.44c-4.15-11.26-5.81-24.2-.93-35.16l.12,0a3.8,3.8,0,0,1,.52-.74,11.75,11.75,0,0,0,5.61,6.58,20.07,20.07,0,0,0,8.49,2.31,26.38,26.38,0,0,1,5.9.71,16.08,16.08,0,0,1,6.31,4.43,3.35,3.35,0,0,0,1.78,1.14c1.63.12,2.57-2.25,4.2-2.2s2.1,2.2,1.95,3.79c-.29,3.23-1.21,6.55-3.48,8.85-1.21,1.26-2.75,2.13-4,3.32.07.17.15.34.24.52a79.16,79.16,0,0,0,6.41,11.38l-.36.23a171.67,171.67,0,0,0,5.78,30.73,4.74,4.74,0,0,1,.08,3.51,4.51,4.51,0,0,1-2.28,1.74,69.15,69.15,0,0,1-23,5.94,61.1,61.1,0,0,1-6.63.19c-2-.07-4.16-.31-5.5-1.78s-1.33-3.51-1.28-5.42A80.06,80.06,0,0,1,244.89,218a5.67,5.67,0,0,1,1.83-.36c.63,0,1.44,0,1.76-.57a1.58,1.58,0,0,0,0-1.17c-.5-1.85-1-3.69-1.51-5.54a7.15,7.15,0,0,1-4.88-1.44A10.38,10.38,0,0,1,239.37,204.44Z"/><path class="cls-2" d="M378.53,263.9c-.52,2.68-1.16,5.35-1.94,8a4.89,4.89,0,0,1-1.48,2.65,1.76,1.76,0,0,1-2.65-.45,2.45,2.45,0,0,1-2.2,2.92,3.89,3.89,0,0,1-3.42-2.06,10.13,10.13,0,0,1-1.08-4,41.3,41.3,0,0,1,.67-14.2q-13.06-10-26.66-19.33a18.46,18.46,0,0,0-4.7-2.59,18.12,18.12,0,0,0-6.14-.47q-12.18.43-24.32,1.63a2.61,2.61,0,0,0-2.92,2.5c-1.12,4.84-2.28,9.65-3.42,14.48l.05,0a3.53,3.53,0,0,1,.17.49,32.73,32.73,0,0,1-8.36-8.24c-.44-.57-.84-1.14-1.24-1.71a69.64,69.64,0,0,1-12.27-33.62l.76-.08a7,7,0,0,0,.68.3,11.19,11.19,0,0,0,4.23.56c3.59,0,7.19-.07,10.78-.19a80.3,80.3,0,0,1,13.34.15c6.16.77,12,3.14,17.77,5.49,4.85,1.95,9.68,3.93,14.53,5.89a59.76,59.76,0,0,1,8.94,4.21c4.18,2.55,7.66,6.06,11.08,9.53q8.31,8.44,16.61,16.83a14.26,14.26,0,0,1,3,3.86C379.35,258.76,379,261.41,378.53,263.9Z"/><path class="cls-2" d="M355.36,439.59a81.12,81.12,0,0,0,15.34,22.24,24.4,24.4,0,0,1-12.81,9.6c-.85.26-1.95.43-2.58-.22v0a1.92,1.92,0,0,0-.41-.05c-14.63-25.2-34.51-46.95-54.2-68.47q-15.15-16.5-30.25-33c-8,2.27-16,4.57-23.75,7.54a11.93,11.93,0,0,0-4,2.16c-2.7,2.59-2.45,6.85-2.67,10.57-.8,13.14-9.66,24.15-16.81,35.19a159.61,159.61,0,0,0-18,37.88c-2.95-.5-6.21.1-8.93-.81a6,6,0,0,1-1.81-.9c-1.89-1.38-2.78-3.7-3.57-5.89-.44-1.18-.86-2.37-1.3-3.54a398.82,398.82,0,0,0,23.92-65.95c2.31-8.71,4.5-17.82,10.27-24.72a57.3,57.3,0,0,1,9.48-8.44q12.18-9.32,24.37-18.65l2.9-2.21a24.54,24.54,0,0,1,6.21-3.86c4.41-1.66,9.44-.67,13.72,1.32A35.29,35.29,0,0,1,294.09,341,56.49,56.49,0,0,1,302.46,359h0l.05,0a2,2,0,0,0,.18-.15,50.6,50.6,0,0,0,6.2-6.22q5.2,12.07,10.47,24.16c2.53,5.88,5.12,11.8,9.08,16.82,3.29,4.16,7.43,7.58,10.79,11.69C347.19,415.19,350,428.11,355.36,439.59Z"/><path class="cls-2" d="M298,278.34v.41a31.93,31.93,0,0,0,1.29,10.43,23.84,23.84,0,0,0,3,5.78,22.25,22.25,0,0,0-7.94,2c-8.41,3.46-16.5,7.87-24.89,11.31a74.26,74.26,0,0,1-15.64,4.8l-.69.14c-2-9.38-5-18.51-8.18-27.59l.06,0a16.66,16.66,0,0,0,4.43-1.17l0-.14,5.52-1q16.06-2.9,32.1-5.79a1.64,1.64,0,0,1,.1.38A82.15,82.15,0,0,1,298,278.34Z"/><path class="cls-2" d="M222.38,250q-17.06,6-34.58,10.45a48.55,48.55,0,0,1-9.25,1.68,24.7,24.7,0,0,1-7-.62c-1.81-.42-3.69-1.13-4.72-2.69-1.22-1.81-.89-4.22-.33-6.36a86.34,86.34,0,0,1,5.8-14.73q9-19.15,17.93-38.31a18.33,18.33,0,0,0,1.76-5,27.93,27.93,0,0,0,0-4.48,21.78,21.78,0,0,1,2-9.24,4.16,4.16,0,0,1,2.47-2.59,4.58,4.58,0,0,1,2.48.41c3.07,1.1,6.13,2.21,9.21,3.34,1.13.4,2.47,1.1,2.44,2.31-.05,1.7-2.75,2.32-2.8,4,.78-.79,2.28-.28,2.8.72a4.46,4.46,0,0,1-.05,3.31c-2.18,6.71-8.86,10.91-12.27,17.07a38.89,38.89,0,0,0-3.37,10c-1.45,6-2.87,12-4.32,18l.09-.07c5.87-3.12,11.8-6.22,17.67-9.33,5.57-2.93,11.36-5.94,17.65-6.11,4.4-.13,9,1.15,13.09-.58a17.1,17.1,0,0,0,1.9-1c-2.13,6.65-3.95,13.41-5.62,20.19-1.36,5.49-2.62,11-3.88,16.51-.27,1.08-.5,2.19-.69,3.28Q226.37,255.23,222.38,250Z"/><path class="cls-10" d="M379.9,470.08c1.22,1.6,2.4,3.42,2.33,5.43-.1,3.08-3,5.23-5.52,7A77.93,77.93,0,0,0,365.35,492c-3.36,3.48-6.35,7.42-10.42,10s-9.73,3.54-13.63.69a4.08,4.08,0,0,1-1.47-1.77,2.79,2.79,0,0,1-.16-.92l.17,0c3.32.33,6.71.65,9.94-.17,4.66-1.16,8.43-4.54,11.46-8.25s5.49-7.86,8.71-11.42,7.49-7,8.76-11.58C379.12,469.07,379.52,469.57,379.9,470.08Z"/><path class="cls-9" d="M370.7,461.83c.11-.16.23-.33.33-.5l.31-.24a54.92,54.92,0,0,1,7.37,7.49c-1.27,4.62-5.48,7.95-8.76,11.58s-5.69,7.7-8.71,11.42-6.8,7.09-11.46,8.25c-3.23.82-6.62.5-9.94.17l-.17,0c0-1.59,1.35-3.11,2.44-4.43,3.19-3.87,4.71-8.86,5.5-13.81.4-2.51.66-5.12,1.92-7.33,1.11-1.92,3.23-3.45,5.37-3.31a1.84,1.84,0,0,1,.41.05v0a2.55,2.55,0,0,0,2.59.22,24.44,24.44,0,0,0,12.8-9.6Z"/><path class="cls-5" d="M372.35,274.07l.11,0a2.44,2.44,0,0,1-2.2,2.91,3.92,3.92,0,0,1-3.42-2.06,9.8,9.8,0,0,1-1.07-4,41.06,41.06,0,0,1,.66-14.2q-13.05-10-26.66-19.33a13.73,13.73,0,0,0-10.85-3.06q-12.18.45-24.3,1.63a3.61,3.61,0,0,0-2.1.69,3.51,3.51,0,0,0-.82,1.81c-1.14,4.83-2.29,9.65-3.43,14.49h.05c.06.16.12.31.17.49a32.57,32.57,0,0,1-8.36-8.24c-.43-.57-.84-1.14-1.24-1.72q4.56-8.24,9.53-16.21a7.65,7.65,0,0,1,2.6-2.89,7.78,7.78,0,0,1,3.12-.7c5.81-.45,11.68-.9,17.47-.11,7.61,1,14.79,4.2,21.37,8.15s12.65,8.7,18.83,13.23a34.14,34.14,0,0,1,6.21,5.34,22,22,0,0,1,4.6,11.88A61.31,61.31,0,0,1,372.35,274.07Z"/><path class="cls-5" d="M355.31,471.19a1.84,1.84,0,0,0-.41-.05c-14.63-25.21-34.51-46.95-54.2-68.46l-30.26-33c10.85-3.06,21.71-6.06,32-10.59,0,0,.05,0,.05.05,10.94,13.26,13.6,31.58,21.93,46.7,6.41,11.66,16.09,21.21,22.95,32.61,5.93,9.83,9.71,20.95,16.46,30.2a24.39,24.39,0,0,1-5.92,2.82,2.55,2.55,0,0,1-2.59-.22Z"/><path class="cls-3" d="M308.86,352.72a52.88,52.88,0,0,1-6.2,6.23l-.2.08A56.83,56.83,0,0,0,294.1,341a35.37,35.37,0,0,0-13.59-11.64c-4.28-2-9.3-3-13.73-1.32a25.37,25.37,0,0,0-6.21,3.86l-2.89,2.21c-2.24-5.71-2.86-11.92-4-18-.17-.95-.36-1.88-.56-2.83l.7-.15a76.42,76.42,0,0,0,15.64-4.79c8.38-3.45,16.48-7.86,24.89-11.32a22.3,22.3,0,0,1,7.92-2c1.34,2,2.84,4,4.21,6A66.42,66.42,0,0,1,316,322.37a38.17,38.17,0,0,1,1.35,9.05C317.45,339.28,313.94,346.62,308.86,352.72Z"/><path class="cls-9" d="M310.3,187.29c.25,3.54,2,7.16.8,10.49a7.71,7.71,0,0,1-4.41,4.28,15,15,0,0,1-6.21.9c-4.37-.16-9.18-1.75-11.13-5.66-2.24-4.47.14-9.8-.09-14.81a6.1,6.1,0,0,0-.62-2.65c-.84-1.57-2.58-2.37-4.17-3.16a11.06,11.06,0,0,1-4.37-3.37c-.88-1.34-1.26-3-2.43-4.07-1.65-1.54-4.18-1.28-6.43-.83a18.23,18.23,0,0,0-2.07-3.5c2.44-.13,4.24-2.5,5.46-4.69s2.7-5,5.3-5.59c2-.47,4.1.54,5.67,1.89s2.84,3,4.45,4.29c3.21,2.51,7.41,3.21,11.32,4.33s8,3.09,9.59,6.83C312.94,176.75,310,182.13,310.3,187.29Z"/><path class="cls-7" d="M280.57,251.14l-38.79,7.51-1,.22q2.94,13.06,6.78,25.88l0,0,.13-.17,1.66-.29,0,.14a17.25,17.25,0,0,1-4.44,1.18H245c-.24-.71-.5-1.42-.74-2.13l.16-.1c-2.88-4.52-7.91-7.44-11-11.91a15.5,15.5,0,0,1-2.82-8.75,20.31,20.31,0,0,1,.22-2.68c.19-1.09.43-2.2.68-3.27,1.27-5.52,2.53-11,3.89-16.52,1.67-6.78,3.49-13.53,5.62-20.18a21.49,21.49,0,0,1,3.91-2.1,79.76,79.76,0,0,0-5.59,26.53c-.05,1.91,0,4,1.28,5.42s3.51,1.71,5.5,1.77a63.55,63.55,0,0,0,6.62-.17,69.3,69.3,0,0,0,23-6,4.49,4.49,0,0,0,2.3-1.74,4.77,4.77,0,0,0-.09-3.5,170.77,170.77,0,0,1-5.77-30.73l.34-.23.31.45h0a2.13,2.13,0,0,1,2.51-1,10.94,10.94,0,0,1,2.07.93l-.75.08a69.42,69.42,0,0,0,12.26,33.61c.4.58.81,1.15,1.24,1.72a32.57,32.57,0,0,0,8.36,8.24c1.17,3.44.67,7.23.29,10.87a139.75,139.75,0,0,0-.76,14,82.13,82.13,0,0,0-10.87-.42c0-.13-.07-.26-.1-.39-.54-2.15-1.07-4.29-1.59-6.45q-2.44-9.91-4.86-19.84a.88.88,0,0,1,.15-.12Z"/><path class="cls-11" d="M254.94,283.33l-5.51,1-1.66.29a199.78,199.78,0,0,1,32.83-33.38q2.41,9.92,4.86,19.84c.52,2.16,1.05,4.3,1.59,6.45Q271,280.46,254.94,283.33Z"/><path class="cls-5" d="M257.68,334.07l2.89-2.21a25.37,25.37,0,0,1,6.21-3.86c4.43-1.66,9.45-.68,13.73,1.32A35.37,35.37,0,0,1,294.1,341a128.19,128.19,0,0,1-33.47,19.26c-9.22,3.69-19.34,6.94-25.36,14.84-4.8,6.31-6.09,14.52-8,22.22-5.82,23.3-18.44,44.23-30.89,64.77l0,.12a6.34,6.34,0,0,1-1.82-.91c-1.88-1.38-2.77-3.69-3.57-5.88-.42-1.18-.85-2.37-1.29-3.55a400.06,400.06,0,0,0,23.92-65.95c2.32-8.71,4.5-17.83,10.27-24.72a57.64,57.64,0,0,1,9.47-8.44Z"/><path class="cls-10" d="M247.77,284.62l-.13.17,0,0q-3.85-12.79-6.78-25.88l1-.22,38.79-7.51a.19.19,0,0,0,0,.1A199.78,199.78,0,0,0,247.77,284.62Z"/><path class="cls-5" d="M277.9,240.37a4.77,4.77,0,0,1,.09,3.5,4.49,4.49,0,0,1-2.3,1.74,69.3,69.3,0,0,1-23,6,2.64,2.64,0,0,0,1.32-1.35c6.67-12,8.27-26.09,9.69-39.76.41-4,.83-8,1.22-11.94a4.54,4.54,0,0,1,.39-.48c.17-.19.34-.36.51-.53.07.17.16.34.23.51a80.66,80.66,0,0,0,6.41,11.39l-.34.23A170.77,170.77,0,0,0,277.9,240.37Z"/><path class="cls-9" d="M271.24,168.41c.29.64.56,1.29.82,1.93a88.45,88.45,0,0,1,3.32,9.94c.81,3,1.44,6.19.62,9.18-1.2,4.34-5.36,7.36-9.73,8.46l-.21.1c-.07-.17-.16-.34-.23-.51,1.27-1.19,2.8-2.07,4-3.32,2.27-2.29,3.19-5.63,3.49-8.85.14-1.6-.35-3.77-2-3.8s-2.56,2.33-4.18,2.2a3.21,3.21,0,0,1-1.79-1.13,16.08,16.08,0,0,0-6.31-4.43,26.47,26.47,0,0,0-5.91-.71,20.11,20.11,0,0,1-8.48-2.31,11.67,11.67,0,0,1-5.6-6.58,5,5,0,0,1,1.11-.92,44.07,44.07,0,0,1,15.93-6.21c3.69-.65,7.76-.75,10.84,1.36a9.75,9.75,0,0,1,2.2,2.1A18.23,18.23,0,0,1,271.24,168.41Z"/><path class="cls-5" d="M247,210.39a7.21,7.21,0,0,1-4.88-1.45,10.29,10.29,0,0,1-2.7-4.49c-4.15-11.28-5.81-24.21-.92-35.17l.11,0a3.14,3.14,0,0,1,.53-.74,11.67,11.67,0,0,0,5.6,6.58,20.11,20.11,0,0,0,8.48,2.31,26.47,26.47,0,0,1,5.91.71,16.08,16.08,0,0,1,6.31,4.43,3.21,3.21,0,0,0,1.79,1.13c1.62.13,2.57-2.24,4.18-2.2s2.1,2.2,2,3.8c-.3,3.22-1.22,6.56-3.49,8.85-1.2,1.25-2.73,2.13-4,3.32-.17.17-.34.34-.51.53a4.54,4.54,0,0,0-.39.48c-.54.69-1,1.45-1.48,2.17a22.8,22.8,0,0,1-13.78,9.36A13.68,13.68,0,0,1,247,210.39Z"/><path class="cls-5" d="M254.94,283.33a38.76,38.76,0,0,1,14.54,25,76.42,76.42,0,0,1-15.64,4.79l-.7.15c-1.95-9.39-5-18.52-8.18-27.6H245a17.25,17.25,0,0,0,4.44-1.18l0-.14Z"/><path class="cls-5" d="M190.58,237.18l.08-.06a32.14,32.14,0,0,1-5.78,10.66c4.56,1.19,9.41-.08,13.68-2.07s8.21-4.65,12.55-6.48c7.76-3.26,17.17-3.49,24.25,1.07-1.36,5.48-2.62,11-3.89,16.52-.25,1.07-.49,2.18-.68,3.27q-4.42-4.87-8.41-10.12-17.06,6-34.58,10.45a47.8,47.8,0,0,1-9.25,1.69,25.14,25.14,0,0,1-7-.63c-1.8-.42-3.69-1.13-4.71-2.68-1.22-1.81-.89-4.24-.34-6.37a85.78,85.78,0,0,1,5.82-14.73q9-19.17,17.92-38.32a17.93,17.93,0,0,0,1.76-5,30.45,30.45,0,0,0,0-4.48,21.74,21.74,0,0,1,2-9.25,4.16,4.16,0,0,1,2.47-2.58,4.67,4.67,0,0,1,2.48.4l9.21,3.35c1.13.41,2.46,1.1,2.44,2.31-.05,1.7-2.76,2.32-2.81,4,.79-.79,2.3-.28,2.81.72a4.46,4.46,0,0,1-.05,3.31c-2.18,6.7-8.86,10.9-12.28,17.07a39.25,39.25,0,0,0-3.36,10Q192.74,228.16,190.58,237.18Z"/><path class="cls-9" d="M205.25,463c1.07,1.88.39,4.36-.18,6.53a42.5,42.5,0,0,0-1.35,10.77,7,7,0,0,0-3.37-3.32c-2.39-1.12-5.12-1.14-7.76-1.22a31.46,31.46,0,0,1-10.18-1.53c-4.47-1.66-8.06-5-11.73-8.09s-7.83-5.95-12.58-6.35c-2.11-.17-4.44.26-5.87,1.82l-.18-.07.13-.3a5.11,5.11,0,0,1,1.17-1.66c1.59-1.38,4-1.11,6.06-.9a25.47,25.47,0,0,0,11.19-1c4.82-1.7,8.63-5.37,12.94-8.11a7,7,0,0,1,2.47-1.1,2.68,2.68,0,0,1,2.51.75,4.29,4.29,0,0,1,.65,1.3l.47,1.28c.44,1.18.87,2.37,1.29,3.55.8,2.19,1.69,4.5,3.57,5.88a6.34,6.34,0,0,0,1.82.91c2.72.89,6,.3,8.93.79Z"/><path class="cls-10" d="M203.75,481.47a7.3,7.3,0,0,1-.55,3.94,5.48,5.48,0,0,1-2.68,2.07,14.34,14.34,0,0,1-5.85,1.12,22.21,22.21,0,0,1-9.81-3.05c-3.05-1.61-5.94-3.56-9.07-5-4.53-2.07-9.46-3.05-14.16-4.68-3.78-1.31-7.68-3.28-9.44-6.87a9,9,0,0,1-.14-7.48l.18.07c1.43-1.56,3.76-2,5.87-1.82,4.75.4,8.91,3.29,12.58,6.35s7.26,6.43,11.73,8.09a31.46,31.46,0,0,0,10.18,1.53c2.64.08,5.37.1,7.76,1.22a7,7,0,0,1,3.37,3.32h0C203.72,480.69,203.74,481.07,203.75,481.47Z"/></svg>